<?xml version="1.0" encoding="utf-8"?>
<!-- Generator: Adobe Illustrator 21.0.2, SVG Export Plug-In . SVG Version: 6.00 Build 0)  -->
<svg version="1.1" id="图层_1" xmlns="http://www.w3.org/2000/svg" xmlns:xlink="http://www.w3.org/1999/xlink" x="0px" y="0px"
	 viewBox="0 0 815 170" style="enable-background:new 0 0 815 170;" xml:space="preserve">
<style type="text/css">
	.st0{filter:url(#Adobe_OpacityMaskFilter);}
	.st1{mask:url(#SVGID_1_);}
	.st2{fill:#23CF5F;}
	.st3{fill:#FFFFFF;}
	.st4{fill:#24D060;}
	.st5{fill:#795548;}
</style>
<defs>
	<filter id="Adobe_OpacityMaskFilter" filterUnits="userSpaceOnUse" x="56.5" y="16.7" width="122.9" height="135.9">
		<feFlood  style="flood-color:white;flood-opacity:1" result="back"/>
		<feBlend  in="SourceGraphic" in2="back" mode="normal"/>
	</filter>
</defs>
<mask maskUnits="userSpaceOnUse" x="56.5" y="16.7" width="122.9" height="135.9" id="SVGID_1_">
	<g class="st0">
		<rect x="144.6" y="105.8" transform="matrix(0.866 -0.5 0.5 0.866 -48.3009 92.9222)" width="9.2" height="61.5"/>
	</g>
</mask>
<g class="st1">
	<g>
		<circle class="st2" cx="120.2" cy="82.7" r="24.7"/>
	</g>
	<g>
		<path class="st2" d="M179.3,59c0-5.5-3.9-12.2-8.7-15l-44.1-25.3c-4.8-2.7-12.6-2.7-17.3,0.1l-44,25.6c-4.8,2.8-8.6,9.5-8.6,15
			l0.2,50.9c0,5.5,3.9,12.2,8.7,15l44.1,25.3c4.8,2.7,12.6,2.7,17.3-0.1l44-25.6c4.8-2.8,8.6-9.5,8.6-15L179.3,59z M120.2,116.9
			c-18.7,0-33.9-15.2-33.9-33.9c0-18.7,15.2-33.9,33.9-33.9c18.7,0,33.9,15.2,33.9,33.9C154.2,101.7,139,116.9,120.2,116.9z"/>
	</g>
</g>
<circle class="st3" cx="118" cy="84.6" r="36.9"/>
<circle class="st4" cx="118" cy="84.6" r="27.7"/>
<g>
	<path class="st5" d="M310.5,118.5l-6.8,2.2l-1.7-5.4l-71.2,5.1l-0.5-7.1l35.7-2.5V97.2h-31.9V64.3h31.9V50.7h7.1v13.7h24.7v-2.2
		h7.1v27c0,2.3-0.8,4.2-2.4,5.8c-1.6,1.6-3.5,2.3-5.7,2.3h-23.7v13l26.6-1.9l-1.8-5.7l6.8-2.2L310.5,118.5z M266.1,90.1V71.5h-24.8
		v18.6H266.1z M273.2,71.5v18.6h23.7c0.7,0,1-0.3,1-1V71.5H273.2z"/>
	<path class="st5" d="M367.8,87.2h-48.2v-7.1h27.9c1.3-2.1,2.5-4.1,3.6-6c1-1.9,1.9-3.5,2.7-5c0.7-1.4,1.5-3,2.3-4.7l6.4,3
		c0,0.1-0.2,0.4-0.5,1.1c-0.3,0.7-0.8,1.6-1.3,2.7c-0.6,1.1-1.3,2.4-2.1,4c-0.8,1.5-1.7,3.2-2.7,4.9h12.1V87.2z M365.8,62.6h-44.3
		v-7.1l18.3-0.1l-1.3-3l6.6-2.7l2.4,5.8h18.4V62.6z M364.2,111.6c0,2.2-0.8,4.1-2.4,5.7c-1.6,1.6-3.5,2.3-5.7,2.3h-32.9v-28h33.9v-2
		h7.1V111.6z M325,68.1l6.1-3.6l7,12.1l-6.1,3.5L325,68.1z M330.2,112.5h25.8c0.7,0,1-0.3,1-1V98.7h-26.8V112.5z M376.9,120.6h-7.1
		V52.5h28.1v12.7l-9,15.2c0.7,1.1,1.6,2.6,2.6,4.6c1,2,2,4.3,3,7c1,2.7,1.8,5.8,2.4,9.1s1,7.1,1,11v3.6h-18.9v-7.1h11.8
		c-0.3-4-0.9-7.5-1.8-10.7c-0.9-3.2-1.9-5.9-2.9-8.1c-1-2.2-2.4-4.6-4-7l-1.5-1.9l10.4-17.6v-3.7h-14V120.6z"/>
	<path class="st5" d="M423,94.3l-14.2-9.1l3.9-5.9l14.2,9L423,94.3z M427,63.2h-17v-7.1h17v-5.3h7.1v5.3H447v7.1h-12.9v4.5H427V63.2
		z M425.6,97.6l5.8,4L417.7,121l-5.8-4L425.6,97.6z M416.7,66.3l14.2,9.1l-3.8,5.9l-14.2-9L416.7,66.3z M483.9,80.7
		c-1.9,1.4-3.9,2.8-6.1,4.1c-2.2,1.3-4.5,2.5-7,3.7l19.5,5.1l-1.8,6.8l-5.8-1.5v13.3c0,2.3-0.8,4.2-2.3,5.8
		c-1.6,1.6-3.5,2.3-5.8,2.3h-36.4v-19.8h37.4v-1.8h6.7l-22-5.8c-3.4,1.3-6.7,2.4-9.9,3.4c-3.2,1-6,1.8-8.5,2.5
		c-2.5,0.7-4.6,1.2-6.2,1.5c-1.6,0.4-2.5,0.6-2.7,0.6l-1.4-6.9c0.1,0,0.5-0.1,1.4-0.3c0.8-0.2,2-0.5,3.5-0.9
		c1.5-0.4,3.2-0.9,5.2-1.4c2-0.5,4.1-1.2,6.4-1.9l-7.5-2l1.8-6.8l17.7,4.7c2.2-0.8,4.4-1.7,6.6-2.7c2.2-1,4.3-2,6.3-3.2h-30.6
		c-1.2,1.9-2.3,3.5-3.2,4.6c-0.9,1.2-1.4,1.8-1.5,1.9l-5.6-4.4c1.4-1.8,2.5-3.4,3.5-4.8c1-1.4,2-3,3.1-4.8c1.1-1.8,2.1-3.7,2.9-5.6
		l6.4,2.9c-0.2,0.5-0.5,1-0.7,1.5c-0.2,0.5-0.5,1.1-0.8,1.5h31.8v-1.9h7.1v9L483.9,80.7z M475.6,107.7h-30.3v5.6h29.3
		c0.4,0,0.6-0.1,0.7-0.3c0.2-0.1,0.4-0.4,0.4-0.7V107.7z M464.9,67.7v-4.5h-13v-7.1h13v-5.3h7.1v5.3h17v7.1h-17v4.5H464.9z"/>
	<path class="st5" d="M546.2,85.7c0,1.9-0.7,3.5-2,4.8c-1.3,1.3-2.9,2-4.8,2c-1.9,0-3.5-0.7-4.8-2c-1.3-1.3-1.9-2.9-1.9-4.8
		c0-1.9,0.6-3.5,1.9-4.9c1.3-1.3,2.9-2,4.8-2c1.9,0,3.4,0.7,4.8,2C545.6,82.1,546.2,83.8,546.2,85.7z"/>
	<path class="st5" d="M593.3,65.2h7.1V79c0,3.4-0.2,6.4-0.6,9.2c-0.4,2.8-0.9,5.2-1.4,7.2c-0.5,2-1,3.7-1.4,4.9
		c-0.4,1.2-0.7,1.8-0.7,1.9l-6.5-2.7c0.7-2.1,1.3-4,1.8-5.8c0.4-1.8,0.9-3.9,1.2-6.4c0.4-2.5,0.5-5.2,0.5-8.2V65.2z M611,77.7v42.9
		h-7.1V50.7h7.1v19.9h8.3v7.1H611z M641.6,91.9c-1.6,4.1-3.6,7.9-6.2,11.3c-2.6,3.4-5.1,6.4-7.6,8.8c-2.5,2.5-4.7,4.4-6.6,5.8
		c-1.9,1.4-3,2.2-3.2,2.3l-3.9-5.9c0.1,0,0.8-0.6,2.3-1.7c1.5-1.1,3.3-2.6,5.4-4.6s4.2-4.3,6.5-7c2.2-2.7,4.2-5.7,5.7-9h-17.5v-7.1
		h20c0.2-0.9,0.3-1.8,0.5-2.7c0.1-0.9,0.2-1.8,0.2-2.8V66.7h-16.1v-7.1H637v-8.9h7.1v8.9h13.7v-1.9h7.1v27.1h4.1v7.1H641.6z
		 M644.1,79.3c0,1,0,1.9-0.1,2.8c-0.1,0.9-0.2,1.8-0.4,2.7h14.1V66.7h-13.7V79.3z M651.3,93.9l17.8,21.6l-5.5,4.5l-17.8-21.6
		L651.3,93.9z"/>
	<path class="st5" d="M696.5,98v13.3c0,1.3-0.2,2.4-0.7,3.5c-0.5,1.1-1.1,2-1.9,2.8c-0.8,0.8-1.8,1.5-2.9,1.9
		c-1.1,0.5-2.3,0.7-3.5,0.7h-7.1v-7.1h7c0.5,0,1-0.2,1.4-0.6c0.4-0.4,0.6-0.9,0.6-1.4l0-11.1l-8.4,2.7l-2.2-6.7l10.5-3.3V67.3h-9
		v-7.1h9v-9.4h7.1v9.4h8.1v7.1h-8.1l-0.1,23.2l7.1-2.2l2.1,6.8L696.5,98z M755.7,99.3c-0.2,0.1-1.4,1-3.6,2.6
		c-2.2,1.6-5.5,3.5-9.9,5.7l16.7,5.8l-2.3,6.7l-23.6-8.1c-3.7,1.5-7.7,3-12.2,4.4c-4.5,1.4-9.4,2.7-14.8,3.8l-1.4-7
		c3.4-0.7,6.5-1.5,9.5-2.3c3-0.8,5.8-1.7,8.4-2.6l-13.6-4.7l2.3-6.6l21.5,7.4c4.2-1.9,7.7-3.6,10.5-5.2c2.8-1.6,4.8-2.9,6.2-3.9
		h-41.2v-7.1h21v-3.6h-22V54.2h11c1.3,0,2.6-0.4,3.9-1.1c1.3-0.7,2.2-1.3,2.7-1.6L729,57c-0.1,0.1-0.5,0.4-1.2,0.9
		c-0.7,0.4-1.5,0.9-2.5,1.4c-1,0.5-2.1,1-3.4,1.4c-1.3,0.4-2.6,0.6-4,0.6h-3.9v5.1h12.6v7.1h-12.6v4H729V50.6h7.1v26.8h13.4
		c0.5,0,1-0.2,1.4-0.5c0.4-0.4,0.6-0.8,0.6-1.4v-2.1h-13.2v-7.1h13.2v-4.1h-12.3v-7.1h12.3v-2.2h7.1v22.7c0,2.5-0.9,4.6-2.6,6.4
		s-3.9,2.6-6.4,2.6h-13.5v3.6h13.8v-1.4h7v11.5L755.7,99.3z"/>
</g>
<g>
</g>
<g>
</g>
<g>
</g>
<g>
</g>
<g>
</g>
<g>
</g>
<g>
</g>
<g>
</g>
<g>
</g>
<g>
</g>
<g>
</g>
<g>
</g>
<g>
</g>
<g>
</g>
<g>
</g>
</svg>
